<svg width="115" height="42" viewBox="0 0 115 42" fill="none" xmlns="http://www.w3.org/2000/svg">
<path d="M6.588 38C6.452 37.64 6.324 37.288 6.204 36.944C6.084 36.592 5.96 36.236 5.832 35.876H2.064L1.308 38H0.096C0.416 37.12 0.716 36.308 0.996 35.564C1.276 34.812 1.548 34.1 1.812 33.428C2.084 32.756 2.352 32.116 2.616 31.508C2.88 30.892 3.156 30.284 3.444 29.684H4.512C4.8 30.284 5.076 30.892 5.34 31.508C5.604 32.116 5.868 32.756 6.132 33.428C6.404 34.1 6.68 34.812 6.96 35.564C7.24 36.308 7.54 37.12 7.86 38H6.588ZM5.496 34.916C5.24 34.22 4.984 33.548 4.728 32.9C4.48 32.244 4.22 31.616 3.948 31.016C3.668 31.616 3.4 32.244 3.144 32.9C2.896 33.548 2.648 34.22 2.4 34.916H5.496ZM27.5824 33.908H28.7464V37.796C28.6504 37.828 28.5104 37.864 28.3264 37.904C28.1504 37.944 27.9424 37.984 27.7024 38.024C27.4704 38.064 27.2144 38.096 26.9344 38.12C26.6544 38.152 26.3704 38.168 26.0824 38.168C25.4984 38.168 24.9664 38.072 24.4864 37.88C24.0064 37.688 23.5944 37.408 23.2504 37.04C22.9064 36.672 22.6384 36.22 22.4464 35.684C22.2624 35.148 22.1704 34.532 22.1704 33.836C22.1704 33.14 22.2744 32.524 22.4824 31.988C22.6984 31.444 22.9864 30.988 23.3464 30.62C23.7064 30.252 24.1264 29.972 24.6064 29.78C25.0944 29.588 25.6144 29.492 26.1664 29.492C26.5424 29.492 26.8744 29.516 27.1624 29.564C27.4584 29.612 27.7104 29.668 27.9184 29.732C28.1264 29.796 28.2944 29.86 28.4224 29.924C28.5584 29.988 28.6504 30.036 28.6984 30.068L28.3264 31.04C28.0944 30.888 27.7864 30.764 27.4024 30.668C27.0184 30.564 26.6264 30.512 26.2264 30.512C25.8024 30.512 25.4144 30.588 25.0624 30.74C24.7184 30.892 24.4224 31.112 24.1744 31.4C23.9344 31.688 23.7464 32.04 23.6104 32.456C23.4744 32.864 23.4064 33.324 23.4064 33.836C23.4064 34.332 23.4624 34.784 23.5744 35.192C23.6944 35.6 23.8704 35.952 24.1024 36.248C24.3424 36.536 24.6344 36.76 24.9784 36.92C25.3304 37.08 25.7424 37.16 26.2144 37.16C26.5504 37.16 26.8344 37.144 27.0664 37.112C27.3064 37.072 27.4784 37.036 27.5824 37.004V33.908ZM44.3089 38V29.684H49.3849V30.68H45.4729V33.152H48.9529V34.124H45.4729V37.004H49.6849V38H44.3089ZM70.6043 38C70.4283 37.704 70.2243 37.372 69.9923 37.004C69.7683 36.636 69.5243 36.256 69.2603 35.864C68.9963 35.464 68.7203 35.06 68.4323 34.652C68.1523 34.244 67.8723 33.852 67.5923 33.476C67.3123 33.092 67.0403 32.732 66.7763 32.396C66.5123 32.06 66.2683 31.764 66.0443 31.508V38H64.9043V29.684H65.8283C66.2043 30.084 66.6043 30.552 67.0283 31.088C67.4603 31.616 67.8843 32.164 68.3003 32.732C68.7243 33.292 69.1203 33.844 69.4883 34.388C69.8643 34.932 70.1803 35.416 70.4363 35.84V29.684H71.5763V38H70.6043ZM90.9508 38.18C90.3668 38.18 89.8348 38.084 89.3548 37.892C88.8748 37.7 88.4628 37.42 88.1188 37.052C87.7748 36.684 87.5068 36.232 87.3148 35.696C87.1308 35.152 87.0388 34.532 87.0388 33.836C87.0388 33.14 87.1428 32.524 87.3508 31.988C87.5668 31.444 87.8548 30.988 88.2148 30.62C88.5748 30.252 88.9948 29.972 89.4748 29.78C89.9548 29.588 90.4668 29.492 91.0108 29.492C91.3548 29.492 91.6628 29.516 91.9348 29.564C92.2148 29.612 92.4548 29.668 92.6548 29.732C92.8628 29.796 93.0308 29.86 93.1588 29.924C93.2868 29.988 93.3748 30.036 93.4228 30.068L93.0868 31.028C93.0148 30.98 92.9108 30.928 92.7748 30.872C92.6388 30.816 92.4828 30.76 92.3068 30.704C92.1388 30.648 91.9508 30.604 91.7428 30.572C91.5428 30.532 91.3388 30.512 91.1308 30.512C90.6908 30.512 90.2948 30.588 89.9428 30.74C89.5908 30.892 89.2908 31.112 89.0428 31.4C88.7948 31.688 88.6028 32.04 88.4668 32.456C88.3388 32.864 88.2748 33.324 88.2748 33.836C88.2748 34.332 88.3308 34.784 88.4428 35.192C88.5628 35.6 88.7388 35.952 88.9708 36.248C89.2028 36.536 89.4908 36.76 89.8348 36.92C90.1868 37.08 90.5948 37.16 91.0588 37.16C91.5948 37.16 92.0388 37.104 92.3908 36.992C92.7428 36.88 93.0068 36.78 93.1828 36.692L93.4828 37.652C93.4268 37.692 93.3268 37.744 93.1828 37.808C93.0388 37.864 92.8588 37.92 92.6428 37.976C92.4268 38.032 92.1748 38.08 91.8868 38.12C91.5988 38.16 91.2868 38.18 90.9508 38.18ZM110.735 38V34.664C110.183 33.808 109.663 32.964 109.175 32.132C108.687 31.3 108.227 30.484 107.795 29.684H109.163C109.467 30.34 109.807 31.008 110.183 31.688C110.559 32.36 110.947 33.008 111.347 33.632C111.739 33.008 112.123 32.36 112.499 31.688C112.875 31.008 113.219 30.34 113.531 29.684H114.827C114.395 30.484 113.935 31.3 113.447 32.132C112.959 32.956 112.443 33.792 111.899 34.64V38H110.735Z" fill="white"/>
<path d="M11.88 7.14V9.8H7.7V21H4.58V9.8H0.4V7.14H11.88ZM17.9452 6.98C20.0252 6.98 21.6185 7.35333 22.7252 8.1C23.8318 8.83333 24.3852 9.98 24.3852 11.54C24.3852 12.5133 24.1585 13.3067 23.7052 13.92C23.2652 14.52 22.6252 14.9933 21.7852 15.34C22.0652 15.6867 22.3585 16.0867 22.6652 16.54C22.9718 16.98 23.2718 17.4467 23.5652 17.94C23.8718 18.42 24.1652 18.9267 24.4452 19.46C24.7252 19.98 24.9852 20.4933 25.2252 21H21.7252C21.4718 20.5467 21.2118 20.0867 20.9452 19.62C20.6918 19.1533 20.4252 18.7 20.1452 18.26C19.8785 17.82 19.6118 17.4067 19.3452 17.02C19.0785 16.62 18.8118 16.26 18.5452 15.94H17.0052V21H13.8852V7.34C14.5652 7.20667 15.2652 7.11333 15.9852 7.06C16.7185 7.00667 17.3718 6.98 17.9452 6.98ZM18.1252 9.64C17.8985 9.64 17.6918 9.64667 17.5052 9.66C17.3318 9.67333 17.1652 9.68667 17.0052 9.7V13.46H17.8852C19.0585 13.46 19.8985 13.3133 20.4052 13.02C20.9118 12.7267 21.1652 12.2267 21.1652 11.52C21.1652 10.84 20.9052 10.36 20.3852 10.08C19.8785 9.78667 19.1252 9.64 18.1252 9.64ZM37.13 21C36.9833 20.52 36.8167 20.0267 36.63 19.52C36.4567 19.0133 36.2833 18.5067 36.11 18H30.71C30.5367 18.5067 30.3567 19.0133 30.17 19.52C29.9967 20.0267 29.8367 20.52 29.69 21H26.45C26.97 19.5067 27.4633 18.1267 27.93 16.86C28.3967 15.5933 28.85 14.4 29.29 13.28C29.7433 12.16 30.1833 11.1 30.61 10.1C31.05 9.08667 31.5033 8.1 31.97 7.14H34.95C35.4033 8.1 35.85 9.08667 36.29 10.1C36.73 11.1 37.17 12.16 37.61 13.28C38.0633 14.4 38.5233 15.5933 38.99 16.86C39.4567 18.1267 39.95 19.5067 40.47 21H37.13ZM33.39 10.28C33.3233 10.48 33.2233 10.7533 33.09 11.1C32.9567 11.4467 32.8033 11.8467 32.63 12.3C32.4567 12.7533 32.2633 13.2533 32.05 13.8C31.85 14.3467 31.6433 14.92 31.43 15.52H35.37C35.1567 14.92 34.95 14.3467 34.75 13.8C34.55 13.2533 34.3567 12.7533 34.17 12.3C33.9967 11.8467 33.8433 11.4467 33.71 11.1C33.5767 10.7533 33.47 10.48 33.39 10.28ZM45.0755 21C44.5288 19.84 43.9888 18.6333 43.4555 17.38C42.9221 16.1267 42.4155 14.8867 41.9355 13.66C41.4555 12.4333 41.0088 11.26 40.5955 10.14C40.1955 9.02 39.8488 8.02 39.5555 7.14H42.9955C43.2621 7.94 43.5488 8.80667 43.8555 9.74C44.1755 10.66 44.4955 11.58 44.8155 12.5C45.1488 13.42 45.4688 14.3 45.7755 15.14C46.0821 15.98 46.3688 16.7067 46.6355 17.32C46.8888 16.7067 47.1688 15.98 47.4755 15.14C47.7955 14.3 48.1155 13.42 48.4355 12.5C48.7688 11.58 49.0888 10.66 49.3955 9.74C49.7155 8.80667 50.0088 7.94 50.2755 7.14H53.5955C53.2888 8.02 52.9355 9.02 52.5355 10.14C52.1355 11.26 51.6955 12.4333 51.2155 13.66C50.7355 14.8867 50.2288 16.1267 49.6955 17.38C49.1621 18.6333 48.6221 19.84 48.0755 21H45.0755ZM55.3891 21V7.14H64.7491V9.76H58.5091V12.48H64.0491V15.04H58.5091V18.38H65.2091V21H55.3891ZM76.778 18.32V21H67.518V7.14H70.638V18.32H76.778Z" fill="white"/>
</svg>
